<?xml version="1.0" encoding="utf-8"?>
<svg version="1.1" xmlns:xlink="http://www.w3.org/1999/xlink" width="329px" height="196px" xmlns="http://www.w3.org/2000/svg">
  <g transform="matrix(1 0 0 1 -822 -8468 )">
    <path d="M 822 8468  L 1151 8468  L 1151 8664  L 822 8664  L 822 8468  " fill-rule="nonzero" fill="#cccccc" stroke="none" />
    <path d="M 836 8482  L 1137 8482  L 1137 8650  L 836 8650  L 836 8482  " fill-rule="nonzero" fill="#ffffff" stroke="none" />
    <path d="M 1007.78 8526.8  C 999.548 8526.8  993.08 8520.331999999999  993.08 8512.099999999999  C 993.08 8503.867999999999  999.548 8497.4  1007.78 8497.4  C 1016.012 8497.4  1022.48 8503.867999999999  1022.48 8512.099999999999  C 1022.48 8520.331999999999  1016.012 8526.8  1007.78 8526.8  " fill-rule="nonzero" fill="#cccccc" stroke="none" />
    <path d="M 841 8645  L 841 8558.1  L 913.75 8518.6  L 1015.6 8588.523404255318  L 1073.8 8542.3  L 1132 8588.523404255318  L 1132 8645  L 841 8645  " fill-rule="nonzero" fill="#169bd5" stroke="none" />
  </g>
</svg>