<?xml version="1.0" encoding="utf-8"?>
<svg version="1.1" xmlns:xlink="http://www.w3.org/1999/xlink" width="407px" height="262px" xmlns="http://www.w3.org/2000/svg">
  <g transform="matrix(1 0 0 1 -580 -1889 )">
    <path d="M 580 1889  L 987 1889  L 987 2151  L 580 2151  L 580 1889  " fill-rule="nonzero" fill="#cccccc" stroke="none" />
    <path d="M 598 1907  L 969 1907  L 969 2133  L 598 2133  L 598 1907  " fill-rule="nonzero" fill="#ffffff" stroke="none" />
    <path d="M 811.29 1967.6  C 800.286 1967.6  791.64 1958.954  791.64 1947.9499999999998  C 791.64 1936.946  800.286 1928.3  811.29 1928.3  C 822.294 1928.3  830.9399999999999 1936.946  830.9399999999999 1947.9499999999998  C 830.9399999999999 1958.954  822.294 1967.6  811.29 1967.6  " fill-rule="nonzero" fill="#cccccc" stroke="none" />
    <path d="M 605 2127  L 605 2009.85  L 694.5 1956.6  L 819.8 2044.7307125307125  L 891.4000000000001 1988.55  L 963 2044.7307125307125  L 963 2127  L 605 2127  " fill-rule="nonzero" fill="#169bd5" stroke="none" />
  </g>
</svg>